HIERARCHY
ROOT Hips
{
  OFFSET -4.35178 90.3298 111.633
  CHANNELS 6 Xposition Yposition Zposition Zrotation Xrotation Yrotation
  JOINT LeftUpLeg
  {
    OFFSET 0.103456 1.85784 10.5485
    CHANNELS 6 Xposition Yposition Zposition Zrotation Xrotation Yrotation
    JOINT LeftLeg
    {
      OFFSET 43.5 -4.2e-05 0
      CHANNELS 6 Xposition Yposition Zposition Zrotation Xrotation Yrotation
      JOINT LeftFoot
      {
        OFFSET 42.3722 1.9e-05 0
        CHANNELS 6 Xposition Yposition Zposition Zrotation Xrotation Yrotation
        JOINT LeftToe
        {
          OFFSET 17.3 0 0
          CHANNELS 6 Xposition Yposition Zposition Zrotation Xrotation Yrotation
          End Site
          {
            OFFSET 0 0 0
          }
        }
      }
    }
  }
  JOINT RightUpLeg
  {
    OFFSET 0.103456 1.85782 -10.5485
    CHANNELS 6 Xposition Yposition Zposition Zrotation Xrotation Yrotation
    JOINT RightLeg
    {
      OFFSET 43.5 -2.7e-05 0
      CHANNELS 6 Xposition Yposition Zposition Zrotation Xrotation Yrotation
      JOINT RightFoot
      {
        OFFSET 42.3723 0 0
        CHANNELS 6 Xposition Yposition Zposition Zrotation Xrotation Yrotation
        JOINT RightToe
        {
          OFFSET 17.3 0 1.7e-05
          CHANNELS 6 Xposition Yposition Zposition Zrotation Xrotation Yrotation
          End Site
          {
            OFFSET 0 0 0
          }
        }
      }
    }
  }
  JOINT Spine
  {
    OFFSET 6.90197 -2.60373 0
    CHANNELS 6 Xposition Yposition Zposition Zrotation Xrotation Yrotation
    JOINT Spine1
    {
      OFFSET 12.5881 0 0
      CHANNELS 6 Xposition Yposition Zposition Zrotation Xrotation Yrotation
      JOINT Spine2
      {
        OFFSET 12.3432 -1.8e-05 0
        CHANNELS 6 Xposition Yposition Zposition Zrotation Xrotation Yrotation
        JOINT Neck
        {
          OFFSET 25.8329 2.3e-05 0
          CHANNELS 6 Xposition Yposition Zposition Zrotation Xrotation Yrotation
          JOINT Head
          {
            OFFSET 11.7666 0 0
            CHANNELS 6 Xposition Yposition Zposition Zrotation Xrotation Yrotation
            End Site
            {
              OFFSET 0 0 0
            }
          }
        }
        JOINT LeftShoulder
        {
          OFFSET 19.7459 -1.48035 6.0001
          CHANNELS 6 Xposition Yposition Zposition Zrotation Xrotation Yrotation
          JOINT LeftArm
          {
            OFFSET 11.2841 1.8e-05 -2e-05
            CHANNELS 6 Xposition Yposition Zposition Zrotation Xrotation Yrotation
            JOINT LeftForeArm
            {
              OFFSET 33 -1.3e-05 1.9e-05
              CHANNELS 6 Xposition Yposition Zposition Zrotation Xrotation Yrotation
              JOINT LeftHand
              {
                OFFSET 25.2 3.2e-05 1.1e-05
                CHANNELS 6 Xposition Yposition Zposition Zrotation Xrotation Yrotation
                End Site
                {
                  OFFSET 0 0 0
                }
              }
            }
          }
        }
        JOINT RightShoulder
        {
          OFFSET 19.7461 -1.48036 -6.00008
          CHANNELS 6 Xposition Yposition Zposition Zrotation Xrotation Yrotation
          JOINT RightArm
          {
            OFFSET 11.2841 0 0
            CHANNELS 6 Xposition Yposition Zposition Zrotation Xrotation Yrotation
            JOINT RightForeArm
            {
              OFFSET 33.0001 1.6e-05 0
              CHANNELS 6 Xposition Yposition Zposition Zrotation Xrotation Yrotation
              JOINT RightHand
              {
                OFFSET 25.1998 0.000123 0.000432
                CHANNELS 6 Xposition Yposition Zposition Zrotation Xrotation Yrotation
                End Site
                {
                  OFFSET 0 0 0
                }
              }
            }
          }
        }
      }
    }
  }
}
MOTION
Frames:	7
Frame Time:	0.0333333
97.873 87.6116 -170.464 87.1749 -31.6798 -3.39145 0.103456 1.85784 10.5485 -17.9544 -8.06864 175.248 43.5 -4.2e-05 1e-05 -39.8456 2.21129 0.261553 42.3722 1.9e-05 -2.84217e-14 73.9702 0.516419 -2.49377 17.3 -7.10543e-15 3e-06 21.4546 -1e-06 0.003093 0.103456 1.85782 -10.5485 -3.27098 13.2573 170.687 43.5 -2.7e-05 4e-06 -20.2104 3.47853 -2.00979 42.3723 0 1e-05 76.05 22.0942 -4.33913 17.3 -6e-06 1.7e-05 21.4546 -1.9e-05 -0.003116 6.90197 -2.60373 -3e-06 8.82299 1.1366 -0.466599 12.5881 1e-05 8e-06 7.62105 2.28136 -1.0933 12.3432 -1.8e-05 -5e-06 7.27397 2.32184 -1.21733 25.8329 2.3e-05 7e-06 14.2044 -0.906037 -7.56641 11.7666 -8e-06 -6e-06 -27.8425 -3.11409 7.79929 19.7459 -1.48035 6.0001 -175.121 21.88 -91.5798 11.2841 1.8e-05 -2e-05 -11.9258 -31.2372 60.6599 33 -1.3e-05 1.9e-05 -106.155 -1.70323 0.51278 25.2 3.2e-05 1.1e-05 -20.0088 16.2682 4.66729 19.7461 -1.48036 -6.00008 -168.116 -18.606 78.1764 11.2841 0 -1e-06 -24.2773 0.956656 -38.1241 33.0001 1.6e-05 -1e-06 -99.9012 -12.7292 23.57 25.1998 0.000123 0.000432 -8.02502 -38.2032 34.2318 
98.9176 86.9432 -173.149 87.61 -24.2723 -1.66865 0.103456 1.85784 10.5485 -19.7517 -7.36399 174.453 43.5 -4.2e-05 1e-05 -42.9731 3.65732 1.87616 42.3722 1.9e-05 0 73.9428 1.79632 -4.91903 17.3 0 3e-06 21.4546 -1e-06 0.003093 0.103456 1.85782 -10.5485 -1.32183 11.2952 170.378 43.5 -2.7e-05 4e-06 -21.2505 5.24627 -1.25141 42.3723 0 1e-05 81.7087 25.6659 -5.58689 17.3 -6e-06 1.7e-05 21.4546 -1.9e-05 -0.003116 6.90197 -2.60373 -3e-06 9.04521 0.765566 -0.499317 12.5881 1e-05 8e-06 8.06933 1.53958 -1.09887 12.3432 -1.8e-05 -5e-06 7.73184 1.588 -1.17692 25.8329 2.3e-05 7e-06 14.4148 -0.153828 -8.41991 11.7666 -8e-06 -6e-06 -27.7943 -1.72221 7.29687 19.7459 -1.48035 6.0001 -177.915 22.7015 -92.7402 11.2841 1.8e-05 -2e-05 -15.3824 -32.2968 60.0333 33 -1.3e-05 1.9e-05 -107.923 -0.293832 2.42305 25.2 3.2e-05 1.1e-05 -20.7456 12.8481 6.25656 19.7461 -1.48036 -6.00008 -166.188 -18.7873 76.6633 11.2841 0 -1e-06 -20.4161 2.31656 -37.897 33.0001 1.6e-05 -1e-06 -99.986 -13.2185 23.5653 25.1998 0.000123 0.000432 -6.32394 -38.8394 35.6074 
100.03 86.2055 -175.534 87.4807 -17.8072 -0.305793 0.103456 1.85784 10.5485 -21.2364 -5.04459 174.153 43.5 -4.2e-05 1e-05 -46.3043 4.28439 2.63208 42.3722 1.9e-05 0 73.9284 1.46284 -5.48389 17.3 0 3e-06 21.4546 -1e-06 0.003093 0.103456 1.85782 -10.5485 -0.393737 5.8775 170.52 43.5 -2.7e-05 4e-06 -22.4772 7.54745 -0.349532 42.3723 1.42109e-14 1e-05 87.7401 23.6627 -7.18987 17.3 -6e-06 1.7e-05 21.4546 -1.9e-05 -0.003116 6.90197 -2.60373 -3e-06 9.24202 0.659165 -0.476517 12.5881 1e-05 8e-06 8.46364 1.33414 -1.037 12.3432 -1.8e-05 -5e-06 8.12872 1.39278 -1.10224 25.8329 2.3e-05 7e-06 14.9051 0.0960862 -8.87456 11.7666 -8e-06 -6e-06 -27.4664 -0.894312 6.59012 19.7459 -1.48035 6.0001 179.546 23.3272 -93.1361 11.2841 1.8e-05 -2e-05 -17.9473 -33.4503 60.5368 33 -1.3e-05 1.9e-05 -109.417 1.8133 4.38185 25.2 3.2e-05 1.1e-05 -21.047 9.85349 7.61981 19.7461 -1.48036 -6.00008 -165.311 -18.3326 75.4775 11.2841 -2.84217e-14 -1e-06 -17.2171 2.81423 -37.7595 33.0001 1.6e-05 -1e-06 -98.3943 -11.7098 23.6001 25.1998 0.000123 0.000432 -4.80706 -37.8886 35.2593 
101.057 86.0689 -177.562 87.5412 -11.8728 0.978304 0.103456 1.85784 10.5485 -21.8141 -2.40943 174.314 43.5 -4.2e-05 1e-05 -47.3709 4.20714 1.52172 42.3722 1.9e-05 0 73.4052 -0.339389 -3.5242 17.3 0 3e-06 21.4546 -1e-06 0.003093 0.103456 1.85782 -10.5485 -1.05243 2.16648 170.973 43.5 -2.7e-05 4e-06 -25.2695 8.88503 -0.280009 42.3723 -1.42109e-14 1e-05 90.2758 23.3456 -8.42011 17.3 -6e-06 1.7e-05 21.4546 -1.9e-05 -0.003116 6.90197 -2.60373 -3e-06 9.43663 0.700225 -0.42433 12.5881 1e-05 8e-06 8.85163 1.42782 -0.94216 12.3432 -1.8e-05 -5e-06 8.51515 1.49801 -1.01312 25.8329 2.3e-05 7e-06 15.4322 -0.0111834 -8.9885 11.7666 -8e-06 -6e-06 -27.4076 -0.688793 5.89351 19.7459 -1.48035 6.0001 177.622 24.1703 -92.6827 11.2841 1.8e-05 -2e-05 -19.7721 -34.0298 62.0014 33 -1.3e-05 1.9e-05 -110.344 5.49256 5.98912 25.2 3.2e-05 1.1e-05 -20.8102 7.9781 8.64523 19.7461 -1.48036 -6.00008 -165.232 -18.0035 74.4632 11.2841 0 -1e-06 -14.764 2.63702 -37.5558 33.0001 1.6e-05 -1e-06 -93.6127 -10.2486 23.2722 25.1998 0.000123 0.000432 -5.23504 -36.2826 33.1369 
101.409 86.4226 -178.973 87.2516 -6.73067 1.98641 0.103456 1.85784 10.5485 -20.5398 0.0217287 174.336 43.5 -4.2e-05 1e-05 -46.1137 2.79096 -0.701477 42.3722 1.9e-05 0 74.1111 -3.13885 -0.0552995 17.3 0 3e-06 21.4546 -1e-06 0.003093 0.103456 1.85782 -10.5485 -1.02013 -0.590825 170.35 43.5 -2.7e-05 4e-06 -27.5066 9.41374 1.08432 42.3723 1.42109e-14 1e-05 90.3504 23.5697 -9.05602 17.3 -6e-06 1.7e-05 21.4546 -1.9e-05 -0.003116 6.90197 -2.60373 -3e-06 9.62405 0.78861 -0.364591 12.5881 1e-05 8e-06 9.2245 1.61738 -0.841145 12.3432 -1.8e-05 -5e-06 8.88516 1.69914 -0.923764 25.8329 2.3e-05 7e-06 15.8013 -0.0444812 -9.14937 11.7666 -8e-06 -6e-06 -26.1166 -0.45856 5.37367 19.7459 -1.48035 6.0001 176.859 24.7976 -91.6707 11.2841 1.8e-05 -2e-05 -21.0646 -32.8114 63.9498 33 -1.3e-05 1.9e-05 -109.455 7.79971 5.70622 25.2 3.2e-05 1.1e-05 -21.5817 8.67117 8.17233 19.7461 -1.48036 -6.00008 -165.635 -17.96 73.4184 11.2841 0 -1e-06 -13.7399 2.00225 -37.4668 33.0001 1.6e-05 -1e-06 -85.759 -11.1683 22.6718 25.1998 0.000123 0.000432 -4.73764 -35.3473 31.7753 
101.538 86.881 -180.015 86.9037 -2.11681 2.73956 0.103456 1.85784 10.5485 -18.891 2.71118 174.605 43.5 -4.2e-05 1e-05 -44.7748 0.399282 -3.21843 42.3722 1.9e-05 0 75.677 -4.72878 4.52099 17.3 0 3e-06 21.4546 -1e-06 0.003093 0.103456 1.85782 -10.5485 -0.0752395 -2.95831 169.725 43.5 -2.7e-05 4e-06 -27.9504 9.9699 2.84732 42.3723 -7.10543e-15 1e-05 90.0233 23.4941 -10.0545 17.3 -6e-06 1.7e-05 21.4546 -1.9e-05 -0.003116 6.90197 -2.60373 -3e-06 9.83104 0.86535 -0.317495 12.5881 1e-05 8e-06 9.63681 1.78179 -0.763982 12.3432 -1.8e-05 -5e-06 9.29501 1.87428 -0.856705 25.8329 2.3e-05 7e-06 15.9281 -0.086013 -9.11795 11.7666 -8e-06 -6e-06 -25.3624 -0.462264 5.20365 19.7459 -1.48035 6.0001 177.008 24.8459 -90.902 11.2841 1.8e-05 -2e-05 -21.8047 -30.61 65.4524 33 -1.3e-05 1.9e-05 -107.765 7.72298 4.2136 25.2 3.2e-05 1.1e-05 -21.5317 9.80761 7.83935 19.7461 -1.48036 -6.00008 -166.114 -18.1738 72.8911 11.2841 -2.84217e-14 -1e-06 -13.638 0.714337 -37.4921 33.0001 1.6e-05 -1e-06 -80.4707 -11.2985 22.3269 25.1998 0.000123 0.000432 -5.4735 -34.2608 29.9491 
101.517 87.2375 -180.971 86.9182 2.66172 3.36895 0.103456 1.85784 10.5485 -17.8842 4.88355 175.158 43.5 -4.2e-05 1e-05 -43.9232 -0.982756 -5.38578 42.3722 1.9e-05 2.84217e-14 76.461 -6.17404 7.14558 17.3 0 3e-06 21.4546 -1e-06 0.003093 0.103456 1.85782 -10.5485 1.41925 -4.61522 170.053 43.5 -2.7e-05 4e-06 -26.8121 11.1989 3.80749 42.3723 -7.10543e-15 1e-05 90.262 23.6939 -11.9627 17.3 -6e-06 1.7e-05 21.4546 -1.9e-05 -0.003116 6.90197 -2.60373 -3e-06 9.94404 0.831801 -0.265944 12.5881 1e-05 8e-06 9.86221 1.72663 -0.656635 12.3432 -1.8e-05 -5e-06 9.5208 1.8293 -0.74609 25.8329 2.3e-05 7e-06 15.7343 -0.392833 -8.83066 11.7666 -8e-06 -6e-06 -25.4749 -0.615899 5.07874 19.7459 -1.48035 6.0001 177.395 23.6158 -90.5617 11.2841 1.8e-05 -2e-05 -22.6647 -27.6196 65.8888 33 -1.3e-05 1.9e-05 -105.819 4.78316 2.03517 25.2 3.2e-05 1.1e-05 -21.5054 12.244 6.8761 19.7461 -1.48036 -6.00008 -165.704 -18.185 72.6062 11.2841 0 -1e-06 -13.2452 -0.191035 -38.3658 33.0001 1.6e-05 -1e-06 -80.3371 -11.8922 22.2769 25.1998 0.000123 0.000432 -6.38717 -34.9625 30.1517 
